<?xml version="1.0" encoding="UTF-8"?>
<svg id="Layer_2" xmlns="http://www.w3.org/2000/svg" xmlns:xlink="http://www.w3.org/1999/xlink" viewBox="0 0 73.82 83.34">
  <defs>
    <style>
      .cls-1 {
        fill: url(#radial-gradient);
      }

      .cls-2 {
        fill: #fff;
      }

      .cls-3 {
        fill: #131517;
      }
    </style>
    <radialGradient id="radial-gradient" cx="61.37" cy="-.95" fx="61.37" fy="-.95" r="64.84" gradientUnits="userSpaceOnUse">
      <stop offset="0" stop-color="#9f42c6"/>
      <stop offset=".27" stop-color="#a041c3"/>
      <stop offset=".42" stop-color="#a43ebb"/>
      <stop offset=".53" stop-color="#aa39ad"/>
      <stop offset=".64" stop-color="#b4339a"/>
      <stop offset=".73" stop-color="#c02b81"/>
      <stop offset=".82" stop-color="#cf2061"/>
      <stop offset=".9" stop-color="#e1143c"/>
      <stop offset=".97" stop-color="#f50613"/>
      <stop offset="1" stop-color="red"/>
    </radialGradient>
  </defs>
  <g id="_x2D_-production">
    <g id="logo.default.tall.positive">
      <g id="logomark.square.gradient">
        <path id="background" class="cls-1" d="M60.91,11.26v25.47c0,6.22-5.05,11.27-11.27,11.27h-25.47c-6.22,0-11.26-5.05-11.26-11.27V11.26C12.91,5.04,17.95,0,24.17,0h25.47c3.32,0,6.3,1.43,8.37,3.72.47.52.89,1.08,1.25,1.68.18.29.34.59.5.89.33.68.6,1.39.79,2.14.1.37.18.76.23,1.15.09.54.13,1.11.13,1.68Z"/>
        <g id="checkbox">
          <path class="cls-2" d="M26.52,17.98l7.92,7.92,1.47-1.47-7.92-7.92-1.47,1.47ZM25.83,18.67l-1.46,1.46,14.4,14.4,1.46-1.47-4.32-4.31L59.26,5.4c-.36-.6-.78-1.16-1.25-1.68l-23.56,23.56-8.62-8.61ZM40.92,32.37l1.47-1.46-2.16-2.16,20.32-20.32c-.19-.75-.46-1.46-.79-2.14l-22.46,22.46,3.62,3.62ZM60.78,9.58l-19.17,19.17,1.47,1.46,17.83-17.83v-1.12c0-.57-.04-1.14-.13-1.68ZM38.07,22.27l-7.92-7.92-1.47,1.47,7.92,7.92,1.47-1.47ZM54.23,35.12c0,3.42-2.78,6.2-6.2,6.2h-22.24c-3.42,0-6.2-2.78-6.2-6.2V12.88c0-3.42,2.78-6.21,6.2-6.21h20.78v-2.07h-20.78c-4.56,0-8.28,3.71-8.28,8.28v22.24c0,4.56,3.71,8.28,8.28,8.28h22.24c4.56,0,8.28-3.71,8.28-8.28v-3.51h-2.07v3.51Z"/>
        </g>
      </g>
      <g id="logotype.white">
        <path class="cls-3" d="M7.41,55.34h-3.53l-1.02,6.17H0v4.04h3.9c-.34.09-.61.31-.8.66-.19.35-.29.73-.29,1.15l.02,10.9c0,1.63.47,2.88,1.42,3.76.95.87,2.27,1.31,3.98,1.31.72,0,1.49-.01,2.3-.03.81-.02,1.56-.1,2.26-.23v-3.96c-.41.01-.86.02-1.36.03s-1.04,0-1.64,0c-.92,0-1.55-.15-1.88-.45-.34-.3-.5-.83-.5-1.6v-11.55h5.42v-4.04h-5.42v-6.17ZM24.98,61.06c-1.08,0-2,.23-2.76.68-.76.45-1.38,1.06-1.85,1.8-.47.75-.84,1.57-1.1,2.46-.11.38-.2.76-.28,1.14l-.35-5.63h-3.98v21.51h4.65v-14.43c.22-.6.58-1.11,1.08-1.52.5-.41,1.04-.71,1.64-.92.59-.2,1.14-.31,1.66-.31.43,0,.9.02,1.4.06s.97.14,1.42.3v-4.97c-.22-.07-.46-.11-.72-.14-.26-.03-.52-.04-.8-.04ZM41.78,62.71c-.75-.58-1.61-1-2.58-1.24-.97-.24-2-.36-3.08-.36-1.84,0-3.43.28-4.78.85-1.35.57-2.36,1.44-3.04,2.63-.68,1.19-.94,2.71-.8,4.56h4.24c.03-1.13.19-1.99.5-2.59s.77-1.01,1.37-1.23c.6-.22,1.35-.33,2.25-.33,1.39,0,2.38.36,2.97,1.09.58.73.88,1.83.88,3.3v.89c-.43.03-1.05.08-1.86.15-.81.07-1.68.16-2.61.28-.93.11-1.81.26-2.64.44-1.21.25-2.25.63-3.12,1.13-.87.51-1.53,1.17-1.99,1.99-.46.82-.69,1.86-.69,3.12,0,1.16.29,2.18.86,3.07.57.89,1.37,1.58,2.39,2.07,1.02.49,2.17.74,3.46.74,1.85,0,3.29-.48,4.31-1.44,1.02-.96,1.65-2.16,1.9-3.61l-.06,4.81h4.55v-14.08c0-1.55-.22-2.83-.65-3.84s-1.03-1.81-1.77-2.4ZM39.71,76.8c-.13.6-.46,1.13-1,1.58-.53.45-1.15.79-1.86,1.02-.71.23-1.41.34-2.09.34-.51.01-.99-.1-1.44-.32-.45-.23-.81-.56-1.08-.98-.28-.42-.41-.92-.41-1.5,0-1.03.33-1.78.99-2.28.66-.49,1.72-.88,3.19-1.17.51-.12,1.13-.24,1.84-.36.72-.12,1.34-.21,1.86-.27v3.94ZM73.82,65.56v-4.04h-5.42v-6.17h-3.53l-1.02,6.17h-1.36,0s-5.51,0-5.51,0l-5.31,7.49-1.64,2.86v-10.35h-4.71v21.52h4.71v-6l2.39-3,5.19,9h5.61l-7.5-12.26,5.27-7.2v1.99h3.9c-.34.09-.61.31-.8.66-.19.35-.29.73-.29,1.15l.02,10.9c0,1.63.47,2.88,1.42,3.76.95.87,2.27,1.31,3.98,1.31.72,0,1.49-.01,2.3-.03.81-.02,1.56-.1,2.26-.23v-3.96c-.41.01-.86.02-1.36.03s-1.04,0-1.64,0c-.92,0-1.55-.15-1.88-.45-.34-.3-.5-.83-.5-1.6v-11.55h5.42Z"/>
      </g>
    </g>
  </g>
</svg>